<svg width="1440" height="859" viewBox="0 0 1440 859" fill="none" xmlns="http://www.w3.org/2000/svg">
<rect y="0.334595" width="1440" height="858" fill="#1C140F"/>
<path d="M0 691.918C28.934 667.775 78.6557 632.493 137.925 616.492C205.5 598.249 322.663 585.213 371.172 659.45C395.132 696.119 369.128 737.749 398 769.749C426.691 801.548 474.941 781.112 511.5 798.249C543.5 813.249 552 839.749 567 858.249" stroke="#E4E4E4"/>
<path d="M393 0.334595C421.419 31.885 495.606 93.4833 565.008 87.4737C651.759 79.9617 711 55.3346 785.377 78.4593C831.677 92.8545 827.257 137.554 869.137 170.106C911.017 202.658 1093.49 123.531 1093.49 123.531C1093.49 123.531 1222.13 65.9393 1234.59 123.531C1247.06 181.123 1195.7 249.733 1219.14 263.755C1237.88 274.973 1374.86 223.691 1441 196.648" stroke="#E17A0E" stroke-opacity="0.24"/>
</svg>
